<svg width="245" height="85" viewBox="0 0 245 85" fill="none" xmlns="http://www.w3.org/2000/svg">
<g clip-path="url(#clip0_5_30)">
<g clip-path="url(#clip1_5_30)">
<path d="M19.0903 49.3564C17.1621 44.7795 14.9061 39.7055 12.7689 34.9077C12.3955 34.0517 11.9801 33.1476 11.7676 32.2687C11.7376 32.1438 11.4086 32.2483 11.5286 31.9493L21.3704 23.1834L9.00247 26.0133L0 5.53264H20.7712L34.8212 38.0691L35.2379 38.0739L49.2278 5.53384C49.7861 5.52664 50.3492 5.53745 50.9075 5.53264L56.0655 9.3411C56.0607 9.58484 56.122 9.90661 56.0679 10.1335C56.0463 10.2248 55.8518 10.2056 55.8326 10.2968C55.512 11.7628 54.9549 12.9767 54.5983 14.4439L54.2297 15.3852L54.3294 15.4992L59.6123 11.8817L64.9552 15.498C64.9816 15.3287 64.9419 15.1787 64.8975 15.0166C64.4449 13.17 63.0929 11.2141 63.1614 9.3411C63.1998 9.1574 65.4894 7.61457 65.8712 7.40325C66.3095 6.929 66.9891 6.41032 67.5606 6.21461L68.1993 5.53264C68.7048 5.53865 69.3471 5.47141 69.8226 5.53264C69.9643 5.55065 70.0603 5.48101 69.9955 5.70674C69.1502 7.83309 68.1537 9.79135 67.318 11.8577C65.9301 15.2867 64.0631 19.1132 62.4782 22.7452C61.9403 23.9782 61.2091 26.3891 60.5151 27.3857C59.6327 28.6548 57.935 30.0703 56.7991 31.3214C56.0559 32.5869 54.8937 33.467 53.9548 34.5788L44.7866 30.9876C44.6906 31.3154 44.9619 31.1581 45.022 31.319C45.6667 33.0323 48.0032 36.3317 49.0321 38.0258C49.2975 38.4641 49.7921 38.7654 49.7165 39.3321C49.7105 39.3802 49.2134 40.0165 49.1414 40.1041C47.5938 41.9856 45.6127 43.7145 44.0723 45.6079C43.4983 46.3139 43.2186 46.6573 44.4589 46.4472C46.7965 46.051 49.3419 45.1049 51.7228 44.7062C52.2151 44.6234 52.4936 44.5033 52.9511 44.6738L47.7558 56.6407C47.2828 56.7872 46.1878 56.3393 45.6607 56.2265C43.4335 55.7474 41.3024 55.2383 39.3021 54.7617C39.0475 54.7017 38.6981 54.7929 38.4244 54.7593L45.7544 61.1924L35.4324 84.964L34.5967 85L24.0178 60.6413C24.0346 60.6245 23.9734 60.2078 24.2531 60.4071C24.2651 60.4155 24.2231 60.6124 24.336 60.6425C24.6169 60.7181 25.0708 60.5704 25.3757 60.6425C26.7181 60.9642 28.046 61.3232 29.476 61.6054C29.7401 61.657 29.8842 61.8443 30.1411 61.8395C30.4209 61.5514 28.6871 60.0674 28.4698 59.8224C28.1456 59.4598 26.2198 57.2674 26.1838 57.0933C26.0361 56.4018 26.3242 56.5374 26.4611 56.2901C27.334 54.7173 28.3786 53.2681 29.1818 51.634L23.3022 54.0341C22.0799 52.4576 20.668 50.8728 19.286 49.4044C19.2344 49.3492 19.1119 49.3696 19.0975 49.3528L19.0903 49.3564Z" fill="#FDFDFC"/>
<path d="M199.068 29.3054L199.063 49.301C199.334 51.6363 199.422 53.1431 201.379 54.7244C201.557 54.7892 201.721 54.7244 201.862 54.7628C201.966 54.7916 201.943 54.9777 202.03 54.9969C202.243 55.0437 202.492 54.9549 202.708 55.0005C202.803 55.0209 202.738 55.219 202.961 55.2478C203.522 55.3211 205.418 55.3211 205.979 55.2478C206.202 55.219 206.137 55.0209 206.232 55.0005C206.481 54.9453 206.783 55.0521 207.029 54.9957C207.117 54.9753 207.094 54.7904 207.199 54.7616C207.997 54.5455 207.532 54.6511 208.043 54.2837C208.196 54.1733 208.606 54.082 208.65 54.0124C208.709 53.9187 208.635 53.7158 208.709 53.5945C208.761 53.5093 209.052 53.3748 209.114 53.28C210.915 49.9434 209.836 33.2003 210.113 29.3042H217.797L217.801 50.3804C217.745 54.7063 216.061 59.683 211.753 61.3207C206.285 63.5791 196.934 63.3522 193.299 57.9433C191.807 55.7257 191.591 53.7206 191.255 51.2221L191.261 29.3042H199.065L199.068 29.3054Z" fill="#7ACC19"/>
<path d="M109.019 62.0832L122.468 29.3066L129.758 29.3439C130.016 29.4255 130.392 30.8219 130.523 31.1304C131.44 33.2916 132.381 35.5536 133.287 37.7316C136.483 45.4926 140.319 54.0172 143.358 62.0832H135.193L132.497 55.4712L119.824 55.5372L117.304 62.082H109.019V62.0832ZM122.466 48.876H130.03L126.248 39.5098L125.923 39.7859C125.41 40.9373 125.068 42.2196 124.614 43.3759C123.925 45.1324 123.085 46.5672 122.705 48.3141C122.698 48.3477 122.221 48.6155 122.466 48.876Z" fill="#FBFBFB"/>
<path d="M89.3283 29.3054C91.7116 35.7925 94.5223 42.3745 97.2418 49.2098C97.3991 49.6096 97.3247 50.4297 97.9118 50.4381L106.318 29.3054H114.902L100.679 62.0916L94.6268 62.0675L80.5636 29.3054H89.3283Z" fill="#FBFBFB"/>
<path d="M238.537 29.1025C240.2 29.8385 242.31 30.2659 243.934 31.2637C244.066 31.3441 244.181 31.7283 244.449 31.7079L241.433 37.5695C241.048 37.7604 240.982 37.4122 240.931 37.3894C238.956 36.4949 237.338 35.7349 235.153 35.4215C234.788 35.3687 232.915 35.5788 232.527 35.6701C232.439 35.6905 232.463 35.8754 232.358 35.9042C232.231 35.939 232.035 35.8694 231.938 35.915C231.847 35.957 230.843 36.8407 230.808 36.9079C230.573 37.3618 230.42 38.4544 230.53 38.9442C230.549 39.0283 230.707 39.0391 230.752 39.1291C231.441 40.5231 233.284 41.169 234.63 41.8054C237.897 43.3494 241.923 44.5705 244.227 48.2949C244.422 48.6107 245.121 49.8125 245.17 50.037C246.034 53.968 244.773 58.2279 241.166 60.5979C235.097 63.9922 226.313 63.0377 220.828 58.9663C220.551 58.7694 219.907 58.6421 219.947 58.181L223.758 52.125C224.047 52.0397 224.932 52.879 225.22 53.0663C226.459 53.8671 227.757 54.6463 229.118 55.0029C229.222 55.0305 229.198 55.219 229.286 55.2383C230.213 55.4424 232.606 55.9478 233.565 55.7173C233.656 55.6957 233.64 55.5024 233.729 55.482C233.974 55.4268 234.277 55.5276 234.541 55.4736C235.213 55.3367 236.306 54.6163 236.618 53.9488C237.876 51.1933 235.054 49.7345 232.967 48.8352C227.828 46.4015 221.394 43.7612 223.083 36.2308C223.104 36.1419 223.299 36.1587 223.32 36.0675C225.045 29.4927 232.483 27.5465 238.538 29.1037L238.537 29.1025Z" fill="#FBFBFB"/>
<path d="M187.301 29.3054V35.6088C187.301 35.6304 187.023 35.909 187.001 35.909H175.655V42.2724H186.821V48.876H175.655V55.4796H187.301V62.0832H167.971V29.3054H187.301Z" fill="#7ACC19"/>
<path d="M152.362 29.3054V55.4796H164.129V62.0832H144.798V29.3054H152.362Z" fill="#FDFDFC"/>
<path d="M60.5128 27.3844L59.7936 37.1085C59.9137 37.1253 60.0781 37.0724 60.1802 37.1133C62.8444 38.4136 65.7776 39.4149 68.6184 40.5903C68.76 40.6456 68.8441 40.4991 68.7961 40.8293L59.2065 43.0085L58.1703 52.5956C57.9986 52.5848 57.0273 50.7791 56.8304 50.4621C56.0308 49.1774 55.1663 47.8495 54.3486 46.5684C53.9716 45.9777 53.5922 44.9127 52.9487 44.6726C52.4912 44.5021 52.2127 44.6221 51.7204 44.705C49.3395 45.1036 46.7954 46.0497 44.4565 46.4459C43.2162 46.656 43.496 46.3126 44.0699 45.6067C45.6103 43.7132 47.5914 41.9843 49.139 40.1029C49.2111 40.0152 49.7081 39.3777 49.7141 39.3309C49.7898 38.7642 49.2951 38.4628 49.0298 38.0246C48.002 36.3304 45.6643 33.0311 45.0196 31.3177C44.9596 31.1568 44.687 31.3141 44.7843 30.9863L53.9524 34.5775C54.8901 33.4657 56.0524 32.5856 56.7968 31.3201C57.9326 30.0691 59.6303 28.6535 60.5128 27.3844Z" fill="#7ACC19"/>
<path d="M50.9076 5.53259C53.1011 5.51218 55.2995 5.56501 57.4931 5.51218L59.4886 0L59.9785 0.123667L61.7278 5.51098C63.8818 5.56981 66.0429 5.50498 68.1969 5.53259L67.5582 6.21456C66.9867 6.41147 66.3071 6.92895 65.8688 7.40321C65.487 7.61572 63.1986 9.15736 63.159 9.34106C63.0905 11.2141 64.4437 13.1699 64.8951 15.0165C64.9395 15.1786 64.9792 15.3287 64.9527 15.498L59.6099 11.8816L54.327 15.4992L54.2273 15.3851L54.5959 14.4438C54.9525 12.9754 55.5084 11.7628 55.8302 10.2968C55.8506 10.2055 56.0439 10.2247 56.0655 10.1335C56.1196 9.90656 56.0583 9.58599 56.0631 9.34106L50.9052 5.53259H50.9076Z" fill="#FDDE04"/>
<path d="M19.0904 49.3563C19.1048 49.3719 19.2273 49.3527 19.2789 49.408C20.6608 50.8775 22.0728 52.4612 23.2951 54.0377L29.1746 51.6376C28.3726 53.2716 27.3268 54.7208 26.454 56.2937C26.3171 56.541 26.0289 56.4053 26.1766 57.0969C26.2138 57.271 28.1397 59.4622 28.4627 59.826C28.68 60.0697 30.4137 61.5537 30.134 61.8431C29.877 61.8479 29.7341 61.6606 29.4688 61.609C28.0388 61.3268 26.7109 60.9678 25.3686 60.646C25.0636 60.5728 24.6098 60.7205 24.3288 60.646C24.216 60.616 24.258 60.4191 24.246 60.4107C23.9662 60.2114 24.0275 60.628 24.0106 60.6448C23.3767 61.2572 23.0489 61.9151 22.5843 62.6667C21.9755 63.6501 21.4148 64.6754 20.7977 65.6527C20.7209 65.774 20.8085 65.8665 20.5288 65.8064L20.0089 59.7167L19.7171 59.4514C17.6772 59.114 15.6997 58.5833 13.6851 58.1211L19.5286 55.4484C19.5959 55.2251 19.6151 54.5804 19.5646 54.363C19.3605 53.4818 19.2201 52.3375 19.0808 51.3458C18.9979 50.7503 19.1528 49.9783 19.0868 49.3587L19.0904 49.3563Z" fill="#FA5956"/>
</g>
</g>
<defs>
<clipPath id="clip0_5_30">
<rect width="245" height="85" fill="white"/>
</clipPath>
<clipPath id="clip1_5_30">
<rect width="245.432" height="85" fill="white"/>
</clipPath>
</defs>
</svg>
